<svg viewBox="0 0 18 18" fill="none" xmlns="http://www.w3.org/2000/svg">
  <path
    d="M13.6889 12.0783C13.4407 12.3588 13.1804 12.6359 12.9081 12.9082C8.97028 16.846 4.03687 18.297 1.88898 16.1491C0.416446 14.6766 0.635436 11.8948 2.1876 9.02218M4.31537 5.99811C4.5736 5.70449 4.84525 5.41465 5.12989 5.13001C9.06768 1.19222 14.0011 -0.258779 16.149 1.8891C17.6225 3.36266 17.4022 6.14725 15.8471 9.02196M12.9081 5.13001C16.8458 9.0678 18.2969 14.0012 16.149 16.1491C14.0011 18.297 9.06768 16.846 5.12989 12.9082C1.1921 8.9704 -0.258901 4.03699 1.88898 1.8891C4.03687 -0.258779 8.97028 1.19222 12.9081 5.13001ZM9.91656 8.99995C9.91656 9.50621 9.50616 9.91662 8.9999 9.91662C8.49363 9.91662 8.08323 9.50621 8.08323 8.99995C8.08323 8.49369 8.49363 8.08329 8.9999 8.08329C9.50616 8.08329 9.91656 8.49369 9.91656 8.99995Z"
    stroke="currentColor"
    stroke-linecap="round"
    stroke-linejoin="round"
  />
</svg>
