<svg viewBox="0 0 21 12" fill="none" xmlns="http://www.w3.org/2000/svg">
  <path
    d="M20.0236 7.02185L18.0253 9.02011L18.0253 3.63844C18.0253 2.85342 17.7151 2.10022 17.1621 1.54301C16.6091 0.985796 15.8583 0.66975 15.0733 0.663757L9.21482 0.663757L9.21482 2.02621L15.0733 2.02621C15.5009 2.02621 15.911 2.19606 16.2134 2.49842C16.5157 2.80077 16.6856 3.21085 16.6856 3.63844L16.6856 8.9974L14.6873 7.02185L13.7336 7.97556L17.3668 11.6088L21 7.97556L20.0236 7.02185Z"
    fill="currentColor"
  />
  <path
    d="M7.4663 4.02443L3.8331 0.391235L0.199904 4.02443L1.15362 4.97814L3.15188 2.97989L3.15188 8.36156C3.15188 9.15049 3.46528 9.90711 4.02314 10.465C4.581 11.0228 5.33762 11.3362 6.12656 11.3362L12.2122 11.3362L12.2122 9.97379L6.12656 9.97379C5.91484 9.97379 5.70519 9.93209 5.50958 9.85106C5.31398 9.77004 5.13625 9.65129 4.98654 9.50158C4.83683 9.35187 4.71807 9.17414 4.63705 8.97853C4.55603 8.78293 4.51432 8.57328 4.51432 8.36156L4.51432 3.00259L6.51258 4.97814L7.4663 4.02443Z"
    fill="currentColor"
  />
</svg>
