<svg width="16" height="16" viewBox="0 0 16 16" fill="none" xmlns="http://www.w3.org/2000/svg">
<g clip-path="url(#clip0_4762_13967)">
<path d="M10.6663 10.6668V12.5335C10.6663 13.2802 10.6663 13.6536 10.521 13.9388C10.3932 14.1897 10.1892 14.3937 9.93833 14.5215C9.65311 14.6668 9.27975 14.6668 8.53301 14.6668H3.46634C2.7196 14.6668 2.34624 14.6668 2.06102 14.5215C1.81014 14.3937 1.60616 14.1897 1.47833 13.9388C1.33301 13.6536 1.33301 13.2802 1.33301 12.5335V7.46683C1.33301 6.72009 1.33301 6.34673 1.47833 6.06151C1.60616 5.81063 1.81014 5.60665 2.06102 5.47882C2.34624 5.3335 2.7196 5.3335 3.46634 5.3335H5.33301M7.46634 10.6668H12.533C13.2797 10.6668 13.6531 10.6668 13.9383 10.5215C14.1892 10.3937 14.3932 10.1897 14.521 9.93882C14.6663 9.6536 14.6663 9.28023 14.6663 8.5335V3.46683C14.6663 2.72009 14.6663 2.34672 14.521 2.06151C14.3932 1.81063 14.1892 1.60665 13.9383 1.47882C13.6531 1.3335 13.2797 1.3335 12.533 1.3335H7.46634C6.7196 1.3335 6.34624 1.3335 6.06102 1.47882C5.81014 1.60665 5.60616 1.81063 5.47833 2.06151C5.33301 2.34672 5.33301 2.72009 5.33301 3.46683V8.5335C5.33301 9.28023 5.33301 9.6536 5.47833 9.93882C5.60616 10.1897 5.81014 10.3937 6.06102 10.5215C6.34624 10.6668 6.71961 10.6668 7.46634 10.6668Z" stroke="#475467" stroke-linecap="round" stroke-linejoin="round"/>
</g>
<defs>
<clipPath id="clip0_4762_13967">
<rect width="16" height="16" fill="white"/>
</clipPath>
</defs>
</svg>
