<svg width="35" height="24" viewBox="0 0 35 24" xmlns="http://www.w3.org/2000/svg">
<path d="M30.2273 2.99342C30.2273 2.99342 26.5793 0.306826 22.2727 0L21.8845 0.731143C25.7775 1.62842 27.5641 2.9111 29.4318 4.49013C26.2126 2.94403 23.0364 1.49671 17.5 1.49671C11.9636 1.49671 8.78739 2.94403 5.56818 4.49013C7.43591 2.9111 9.56136 1.48474 13.1155 0.731143L12.7273 0C8.20909 0.40037 4.77273 2.99342 4.77273 2.99342C4.77273 2.99342 0.699205 8.55071 0 19.4572C4.10455 23.9122 10.3409 23.9474 10.3409 23.9474L11.6455 22.313C9.43091 21.5886 6.93318 20.2961 4.77273 17.9605C7.34841 19.794 11.2358 21.7023 17.5 21.7023C23.7642 21.7023 27.6516 19.794 30.2273 17.9605C28.0676 20.2961 25.5699 21.5886 23.3545 22.313L24.6591 23.9474C24.6591 23.9474 30.8955 23.9122 35 19.4572C34.3008 8.55071 30.2273 2.99342 30.2273 2.99342ZM12.3295 16.4638C10.7911 16.4638 9.54545 15.1243 9.54545 13.4704C9.54545 11.8165 10.7911 10.477 12.3295 10.477C13.868 10.477 15.1136 11.8165 15.1136 13.4704C15.1136 15.1243 13.868 16.4638 12.3295 16.4638ZM22.6705 16.4638C21.132 16.4638 19.8864 15.1243 19.8864 13.4704C19.8864 11.8165 21.132 10.477 22.6705 10.477C24.2089 10.477 25.4545 11.8165 25.4545 13.4704C25.4545 15.1243 24.2089 16.4638 22.6705 16.4638Z" fill="currentColor" />
</svg>

