<svg
  width="14"
  height="14"
  viewBox="0 0 14 14"
  fill="none"
  xmlns="http://www.w3.org/2000/svg"
>
  <g clip-path="url(#clip0_870_328)">
    <path
      fill-rule="evenodd"
      clip-rule="evenodd"
      d="M9.83715 0.265854C9.80185 0.249945 9.76802 0.228266 9.73102 0.218993C8.36437 -0.123388 7.01439 -0.0692005 5.69153 0.41612C5.17698 0.604884 4.69271 0.85765 4.24245 1.17816C3.85273 1.45556 3.49587 1.76589 3.18191 2.12046C2.12373 3.31551 1.62011 4.70652 1.71336 6.30138C1.77582 7.36946 2.13119 8.33539 2.80792 9.16437C3.59643 10.1302 4.61113 10.7308 5.87809 10.8517C6.71259 10.9313 7.50902 10.7922 8.23996 10.3663C8.55442 10.1831 8.83844 9.95911 9.09056 9.69601C9.16784 9.61534 9.24949 9.53621 9.34049 9.47225C9.37966 9.44471 9.46154 9.43542 9.4987 9.45827C9.5353 9.48077 9.56598 9.56193 9.55366 9.60432C9.51281 9.74479 9.47077 9.89128 9.39425 10.014C9.16669 10.379 8.87386 10.6864 8.51057 10.9257C7.11871 11.8427 5.65116 11.8553 4.1518 11.251C3.35991 10.9318 2.70333 10.4141 2.14949 9.76129C1.1998 8.64196 0.770891 7.33786 0.742367 5.89822C0.72588 5.06561 0.907776 4.25801 1.21474 3.48318C1.46559 2.84999 1.79647 2.25867 2.24234 1.73747C2.439 1.50759 2.65101 1.2906 2.85585 1.06755C2.89462 1.02534 2.93239 0.982239 2.97064 0.939527C2.96463 0.932308 2.95861 0.925068 2.95259 0.917827C2.89997 0.960408 2.84261 0.998407 2.79549 1.04628C2.36601 1.4826 1.96567 1.94043 1.64172 2.46345C1.07646 3.37603 0.732684 4.35886 0.642445 5.42625C0.565945 6.33091 0.656249 7.21911 0.956406 8.07893C1.21415 8.81732 1.58575 9.4983 2.11087 10.0841C3.36329 11.4812 4.92312 12.1776 6.82187 12.0457C7.79943 11.9778 8.6919 11.6493 9.45476 11.034C10.6237 10.0911 11.2092 8.87529 11.1252 7.36577C11.1182 7.23997 11.105 7.1133 11.1138 6.98835C11.1176 6.93465 11.1623 6.85059 11.2026 6.84139C11.2484 6.83097 11.3292 6.87523 11.3613 6.91957C11.5055 7.11823 11.5504 7.3558 11.5844 7.59056C11.7204 8.52632 11.5323 9.4012 11.0666 10.2227C10.6219 11.0071 10.0092 11.6313 9.22938 12.0861C7.81875 12.9086 6.3109 13.067 4.73706 12.6808C3.75322 12.4393 2.88568 11.9685 2.12007 11.3126C1.32079 10.6278 0.714846 9.80188 0.296602 8.84077C0.199014 8.61654 0.107031 8.3899 0 8.16692C0.0441599 8.3104 0.0804038 8.45682 0.133701 8.59687C0.663184 9.98801 1.52802 11.1234 2.77586 11.9579C3.87742 12.6945 5.0964 13.0841 6.42672 13.0816C7.83984 13.0789 9.11581 12.6526 10.2194 11.7659C11.3168 10.8841 11.9787 9.74488 12.1818 8.35951C12.3369 7.30166 12.14 6.29343 11.5985 5.37066C11.1394 4.58822 10.4879 3.99776 9.63186 3.65054C9.43378 3.5702 9.23001 3.50367 9.02899 3.43044C8.97448 3.41057 8.91239 3.39976 8.86838 3.36607C8.8244 3.33239 8.7658 3.26893 8.77339 3.22994C8.78285 3.18137 8.84714 3.12188 8.89913 3.10753C8.99173 3.08198 9.09324 3.07673 9.19032 3.08053C9.7926 3.10409 10.3305 3.31921 10.8289 3.64066C11.9092 4.33744 12.569 5.32804 12.865 6.55935C13.1635 7.80098 13.0236 9.00805 12.51 10.1721C12.0849 11.1356 11.4305 11.9287 10.5986 12.5731C10.061 12.9896 9.46473 13.3086 8.82281 13.5486C8.22256 13.7731 7.60628 13.9083 6.96983 13.9652C6.92303 13.9694 6.87669 13.9784 6.83022 13.9966C6.92362 13.9966 7.01796 14.0051 7.11029 13.9952C7.81759 13.9196 8.51286 13.7858 9.17041 13.5091C9.97618 13.1699 10.7055 12.7154 11.3329 12.0999C11.8074 11.6346 12.2138 11.1237 12.5262 10.5405C13.1744 9.33044 13.4106 8.04696 13.1858 6.69205C12.9479 5.25735 12.2593 4.07733 11.0784 3.20542C10.1503 2.5201 9.10041 2.18435 7.93496 2.25091C7.19733 2.29303 6.50946 2.51366 5.89684 2.91594C5.09811 3.44047 4.55785 4.16273 4.33576 5.10084C4.31265 5.19854 4.28663 5.29868 4.24051 5.38663C4.21475 5.43574 4.14519 5.49006 4.09464 5.49078C4.04459 5.49149 3.96081 5.43615 3.94899 5.39076C3.90777 5.23267 3.87018 5.06835 3.86952 4.90624C3.86773 4.46393 4.01533 4.05554 4.21766 3.66924C4.73698 2.67772 5.5573 2.03152 6.60715 1.65637C8.11489 1.11759 9.56299 1.31161 10.9574 2.02964C11.7386 2.43195 12.3836 3.00088 12.9179 3.6971C13.595 4.57951 14.0103 5.56837 14.1762 6.66142C14.2231 6.97079 14.2507 7.28307 14.2899 7.61738C14.3257 7.20795 14.2778 6.82591 14.2144 6.44709C14.0329 5.3613 13.6111 4.37306 12.9356 3.49947C12.3741 2.77317 11.6854 2.19157 10.8612 1.76678C9.93435 1.28911 8.95042 1.0478 7.91119 1.09016C6.70954 1.13914 5.60031 1.50528 4.6823 2.28798C3.30519 3.4621 2.68929 4.9442 3.06324 6.74567C3.28436 7.81084 3.89829 8.62012 4.87384 9.13545C5.09571 9.25264 5.34723 9.31489 5.58565 9.40097C5.67085 9.43172 5.765 9.44595 5.8411 9.49091C5.89213 9.52106 5.94866 9.59252 5.94774 9.64457C5.94685 9.69735 5.88716 9.78221 5.83788 9.79503C5.67838 9.83649 5.51035 9.87978 5.34828 9.87144C4.65221 9.8356 4.05192 9.56332 3.5218 9.11841C2.72649 8.45094 2.27998 7.59283 2.08819 6.59163C1.86261 5.41411 2.08219 4.30074 2.6323 3.25324C3.1183 2.32781 3.82737 1.59759 4.72439 1.04181C5.84346 0.348444 7.06284 0.0384426 8.37336 0.065872C8.86784 0.0762255 9.35737 0.14775 9.83879 0.265249L9.83715 0.265854Z"
      fill="url(#paint0_linear_870_328)"
    />
    <path
      d="M6.02197 0.535156L6.08997 3.67424C6.10172 4.21672 6.53868 4.65367 7.08115 4.66542L10.2202 4.73342L7.08115 4.80142C6.53868 4.81317 6.10172 5.25013 6.08997 5.7926L6.02197 8.93169L5.95397 5.7926C5.94222 5.25013 5.50527 4.81317 4.96279 4.80142L1.82371 4.73342L4.96279 4.66542C5.50526 4.65367 5.94222 4.21672 5.95397 3.67424L6.02197 0.535156Z"
      fill="#2B2B2B"
    />
  </g>
  <defs>
    <linearGradient
      id="paint0_linear_870_328"
      x1="5.24276"
      y1="26.6821"
      x2="22.7078"
      y2="21.3274"
      gradientUnits="userSpaceOnUse"
    >
      <stop stop-color="#F26F56" />
      <stop offset="1" stop-color="#F49756" />
    </linearGradient>
    <clipPath id="clip0_870_328">
      <path
        d="M0 5.6C0 3.63982 0 2.65972 0.381477 1.91103C0.717034 1.25247 1.25247 0.717034 1.91103 0.381477C2.65972 0 3.63982 0 5.6 0H8.4C10.3602 0 11.3403 0 12.089 0.381477C12.7475 0.717034 13.283 1.25247 13.6185 1.91103C14 2.65972 14 3.63982 14 5.6V8.4C14 10.3602 14 11.3403 13.6185 12.089C13.283 12.7475 12.7475 13.283 12.089 13.6185C11.3403 14 10.3602 14 8.4 14H5.6C3.63982 14 2.65972 14 1.91103 13.6185C1.25247 13.283 0.717034 12.7475 0.381477 12.089C0 11.3403 0 10.3602 0 8.4V5.6Z"
        fill="white"
      />
    </clipPath>
  </defs>
</svg>
