<svg viewBox="0 0 20 19" fill="none" xmlns="http://www.w3.org/2000/svg">
  <path
    d="M18.6873 18.2527C17.3694 17.9234 16.0675 17.611 14.7746 17.2672C14.4185 17.1725 14.1434 17.1952 13.8347 17.4184C13.2518 17.8401 12.6361 18.2167 12.0272 18.6015C11.9261 18.6652 11.7904 18.7035 11.6706 18.7044C10.5923 18.7121 9.51388 18.7121 8.43551 18.7044C8.31528 18.7035 8.18049 18.6648 8.07848 18.601C7.36396 18.1566 6.65856 17.6975 5.94313 17.2549C5.85479 17.2002 5.71453 17.1788 5.61297 17.2034C4.20854 17.545 2.80729 17.897 1.37781 18.2536C1.23117 17.7731 1.08636 17.2981 0.940175 16.8232C0.640526 15.8473 0.335867 14.8723 0.0444147 13.8936C0.00843859 13.7734 0.00843859 13.6217 0.0471471 13.5024C0.452903 12.2583 0.873687 11.0187 1.27944 9.77413C1.32316 9.63978 1.335 9.47584 1.30358 9.33877C0.883251 7.50307 0.451992 5.6692 0.0252882 3.83442C0.00661701 3.75472 -0.0111434 3.66456 0.0079832 3.58851C0.306266 2.40084 0.61047 1.21454 0.920593 0C1.29584 0.125233 1.65833 0.243636 2.01991 0.366592C3.85333 0.990482 5.68538 1.61665 7.52016 2.23644C7.66043 2.2838 7.81481 2.30794 7.96281 2.30839C9.31442 2.31386 10.6665 2.31386 12.0181 2.30839C12.1661 2.30794 12.32 2.28107 12.4607 2.23462C14.622 1.52056 16.782 0.800583 18.9424 0.0828817C19.0052 0.0619336 19.0703 0.0482718 19.1541 0.0255021C19.3021 0.631176 19.4478 1.22364 19.5918 1.81657C19.7202 2.34574 19.8554 2.87399 19.9684 3.4068C20.0043 3.57712 20.0144 3.76839 19.9761 3.93643C19.5635 5.75117 19.1368 7.56273 18.7233 9.37748C18.6901 9.5232 18.6937 9.69671 18.7397 9.83788C19.1318 11.0388 19.543 12.2337 19.9338 13.4355C19.9838 13.5894 19.9934 13.782 19.9492 13.9364C19.5508 15.3409 19.1364 16.7407 18.726 18.142C18.7179 18.1702 18.7065 18.198 18.6873 18.2522V18.2527ZM8.70419 5.88734C8.66548 5.9438 8.6336 5.99435 8.59763 6.04171C7.99195 6.84822 7.38901 7.65654 6.77514 8.45667C6.69909 8.55549 6.57659 8.64475 6.45773 8.68118C5.09747 9.09559 3.73447 9.50089 2.37011 9.90118C2.23759 9.93989 2.17019 9.99681 2.12739 10.1298C1.90698 10.8133 1.67518 11.4937 1.44703 12.1745C1.32999 12.5247 1.21205 12.8744 1.08499 13.2524H6.82888C6.68042 14.2493 6.53788 15.2229 6.38806 16.1956C6.3621 16.3646 6.39625 16.4671 6.55427 16.5636C7.16268 16.9343 7.75743 17.3268 8.36264 17.7025C8.45281 17.7586 8.57121 17.7945 8.67732 17.795C9.58856 17.8023 10.4998 17.8032 11.4106 17.7941C11.5304 17.7927 11.6638 17.7494 11.7658 17.6857C12.2476 17.3838 12.7199 17.0673 13.1962 16.7567C13.7094 16.422 13.698 16.4238 13.6038 15.8309C13.4685 14.9793 13.3519 14.1245 13.2231 13.2415H18.9137C18.5721 12.2219 18.2365 11.235 17.9136 10.2441C17.8567 10.0688 17.7729 9.97313 17.5912 9.91757C16.2742 9.51455 14.9599 9.10424 13.6484 8.683C13.5104 8.63883 13.372 8.53272 13.2809 8.41842C12.979 8.03907 12.6971 7.64334 12.4093 7.25261C12.0782 6.80268 11.7485 6.35138 11.4106 5.89007C13.0864 4.56305 14.7441 3.25106 16.4013 1.93907C15.2559 2.26968 14.138 2.64538 13.0177 3.01152C12.754 3.09759 12.4808 3.20916 12.2107 3.21281C10.723 3.23239 9.23427 3.22328 7.7465 3.22009C7.63538 3.22009 7.51971 3.20097 7.41406 3.16636C6.95411 3.01516 6.49735 2.85396 6.03922 2.69776C5.26733 2.43499 4.49544 2.17314 3.72354 1.91129C3.71671 1.92267 3.70988 1.93406 3.70305 1.94544C5.36752 3.25743 7.03153 4.56943 8.70373 5.88734H8.70419ZM7.44958 6.05492C5.46998 4.49611 3.50222 2.9464 1.51261 1.37939C1.33591 2.06567 1.17106 2.71734 0.999376 3.36718C0.94655 3.56756 0.934255 3.75564 0.98617 3.96466C1.20157 4.83811 1.39511 5.71656 1.59913 6.59274C1.78539 7.39378 1.97483 8.19391 2.16154 8.98857C2.19251 8.99312 2.2089 9.00041 2.22165 8.99677C3.48219 8.62152 4.74272 8.24582 6.00188 7.86739C6.05653 7.851 6.11801 7.82003 6.15125 7.77677C6.58205 7.21117 7.0083 6.64192 7.44958 6.05538V6.05492ZM12.6648 6.0572C13.0919 6.63828 13.4995 7.19523 13.9116 7.74853C13.9494 7.79954 14.0095 7.84735 14.0692 7.86602C15.3233 8.26131 16.5789 8.65249 17.8426 9.04686C17.8649 8.97627 17.889 8.91297 17.9045 8.8474C18.2383 7.41837 18.5762 5.99025 18.9014 4.55941C19.002 4.11631 19.1787 3.6805 19.002 3.20552C18.8923 2.90951 18.8463 2.59028 18.7689 2.28198C18.6983 2.001 18.625 1.72093 18.5448 1.4099C16.5661 2.97372 14.6216 4.51068 12.6652 6.05629L12.6648 6.0572ZM1.99669 17.1556C3.12834 16.8751 4.22858 16.6037 5.32744 16.325C5.38346 16.3109 5.45768 16.2403 5.46634 16.187C5.57427 15.5166 5.67172 14.8445 5.77282 14.1678H1.07406C1.38418 15.1719 1.68702 16.1519 1.99714 17.1561L1.99669 17.1556ZM18.9387 14.165H14.2778C14.3757 14.8267 14.4768 15.4688 14.561 16.1137C14.5806 16.2649 14.6525 16.3104 14.7814 16.3418C15.4358 16.5008 16.0879 16.6674 16.7414 16.8286C17.1791 16.9366 17.6172 17.0404 18.0657 17.1488C18.3585 16.1478 18.6445 15.1701 18.9387 14.165Z"
    fill="currentColor"
  />
  <path
    d="M8.659 16.4152C8.659 15.9849 8.65399 15.575 8.66082 15.1656C8.66492 14.9229 9.001 14.6105 9.24099 14.6105C9.76469 14.6105 10.2889 14.6105 10.8126 14.6105C11.0243 14.6105 11.3836 14.9352 11.3882 15.1501C11.3968 15.5663 11.3909 15.983 11.3909 16.4152H8.659Z"
    fill="currentColor"
  />
  <path
    d="M12.3058 10.9645C12.7571 11.266 13.1838 11.5506 13.6669 11.873C12.8891 12.0297 12.1678 12.175 11.3945 12.3307C11.7129 11.8535 12.0038 11.4177 12.3058 10.9645Z"
    fill="currentColor"
  />
  <path
    d="M8.64378 12.3234C7.87781 12.1695 7.16011 12.0256 6.38867 11.8708C6.86183 11.5552 7.29308 11.2674 7.74165 10.9677C8.03765 11.4126 8.32956 11.8512 8.64378 12.323V12.3234Z"
    fill="currentColor"
  />
</svg>
