<svg viewBox="0 0 20 20" fill="none" xmlns="http://www.w3.org/2000/svg">
  <path
    d="M3.12504 19.1666V14.5833M3.12504 5.41665V0.833313M0.833374 3.12498H5.41671M0.833374 16.875H5.41671M10.9167 1.74998L9.32704 5.8831C9.06853 6.55523 8.93928 6.89129 8.73828 7.17397C8.56013 7.42451 8.34124 7.6434 8.0907 7.82155C7.80802 8.02255 7.47196 8.15181 6.79983 8.41032L2.66671 9.99998L6.79983 11.5896C7.47196 11.8482 7.80802 11.9774 8.0907 12.1784C8.34124 12.3566 8.56013 12.5754 8.73828 12.826C8.93928 13.1087 9.06853 13.4447 9.32705 14.1169L10.9167 18.25L12.5064 14.1169C12.7649 13.4447 12.8941 13.1087 13.0951 12.826C13.2733 12.5754 13.4922 12.3566 13.7427 12.1784C14.0254 11.9774 14.3615 11.8482 15.0336 11.5896L19.1667 9.99998L15.0336 8.41032C14.3615 8.15181 14.0254 8.02255 13.7427 7.82155C13.4922 7.6434 13.2733 7.42451 13.0951 7.17397C12.8941 6.89129 12.7649 6.55523 12.5064 5.8831L10.9167 1.74998Z"
    stroke="currentColor"
    stroke-linecap="round"
    stroke-linejoin="round"
  />
</svg>
