<svg
  width="34"
  height="34"
  viewBox="0 0 34 34"
  fill="none"
  xmlns="http://www.w3.org/2000/svg"
>
  <path
    fill-rule="evenodd"
    clip-rule="evenodd"
    d="m21.157.07-2.765 1.545v13.12l1.51.845V5.588l5.184 2.896.005-.002 1.006.561.84-.466v-.789l-7.035-3.925V2.497l1.255-.701 7.287 4.071v3.624l-3.498 1.943-.118-.057a1.496 1.496 0 0 0-.655-.156 1.51 1.51 0 0 0-1.51 1.505c0 .83.677 1.505 1.51 1.505a1.5 1.5 0 0 0 1.493-1.351l.013-.13 3.53-1.961 3.274 1.829v8.094l-3.277 1.83-13.321-7.446V1.617L13.12.07 4.324 4.985v4.486l-4.04 2.254v9.859l4.04 2.257v4.494l8.796 4.915 2.765-1.546V18.556l-1.51-.843v10.02L8.18 24.278l-.84.466v.79l7.035 3.925v1.365l-1.255.701-7.286-4.071v-3.625l3.498-1.942.117.057a1.5 1.5 0 0 0 .655.156c.833 0 1.51-.675 1.51-1.505 0-.83-.677-1.505-1.51-1.505a1.5 1.5 0 0 0-1.493 1.352l-.013.13-3.53 1.96-3.274-1.829v-8.094l3.277-1.83 13.321 7.445v13.482l2.765 1.545 8.796-4.915v-4.486l4.04-2.254v-9.859l-4.04-2.257V4.985L21.157.07ZM5.834 5.867l7.286-4.071 1.255.701v1.365L5.834 8.628v-2.76Zm8.54-.28-7.757 4.33 7.757 4.335V5.587Zm5.528 13.48 7.759 4.337-7.759 4.33v-8.667Zm0 10.391v1.365l1.255.701 7.287-4.071v-2.761l-8.542 4.766Z"
    fill="url(#a)"
  />
  <defs>
    <linearGradient
      id="a"
      x1=".284"
      y1=".07"
      x2=".284"
      y2="33.249"
      gradientUnits="userSpaceOnUse"
    >
      <stop stop-color="#13E5BF" />
      <stop offset="1" stop-color="#01C38D" />
    </linearGradient>
  </defs>
</svg>
