<svg
  width="232"
  height="32"
  viewBox="0 0 232 32"
  fill="none"
  xmlns="http://www.w3.org/2000/svg"
>
  <g clip-path="url(#clip0_870_112)">
    <path
      fill-rule="evenodd"
      clip-rule="evenodd"
      d="M22.4849 0.607666C22.4042 0.571304 22.3269 0.521751 22.2423 0.500557C19.1186 -0.282028 16.0329 -0.158173 13.0092 0.951134C11.8331 1.38259 10.7262 1.96034 9.69703 2.69293C8.80624 3.327 7.99057 4.03632 7.27295 4.84677C4.85425 7.57831 3.70312 10.7578 3.91626 14.4032C4.05901 16.8445 4.87129 19.0523 6.4181 20.9471C8.22041 23.1548 10.5397 24.5275 13.4356 24.8038C15.3431 24.9858 17.1635 24.6679 18.8342 23.6945C19.553 23.2757 20.2022 22.7637 20.7784 22.1623C20.9551 21.9779 21.1417 21.7971 21.3497 21.6509C21.4392 21.5879 21.6264 21.5667 21.7113 21.6189C21.795 21.6703 21.8651 21.8558 21.8369 21.9527C21.7436 22.2738 21.6475 22.6086 21.4726 22.8892C20.9524 23.7235 20.2831 24.426 19.4527 24.973C16.2713 27.069 12.9169 27.0979 9.48982 25.7165C7.67978 24.9869 6.17904 23.8036 4.91311 22.3115C2.7424 19.753 1.76204 16.7723 1.69684 13.4816C1.65915 11.5785 2.07492 9.73259 2.77654 7.96155C3.34991 6.51426 4.10622 5.16267 5.12536 3.97135C5.57486 3.44592 6.05946 2.94994 6.52766 2.44012C6.61628 2.34363 6.70261 2.24512 6.79004 2.14749C6.77629 2.13099 6.76253 2.11444 6.74877 2.09789C6.62849 2.19522 6.4974 2.28207 6.38968 2.39151C5.40803 3.38881 4.49297 4.43527 3.75251 5.63074C2.46047 7.71664 1.67471 9.96312 1.46845 12.4029C1.29359 14.4706 1.5 16.5008 2.18607 18.4661C2.77519 20.1539 3.62456 21.7104 4.82484 23.0493C7.68751 26.2428 11.2529 27.8344 15.5928 27.5331C17.8273 27.3779 19.8672 26.6269 21.6109 25.2205C24.2827 23.0653 25.6211 20.2864 25.429 16.836C25.413 16.5485 25.3829 16.259 25.403 15.9734C25.4116 15.8506 25.5139 15.6585 25.606 15.6375C25.7105 15.6136 25.8953 15.7148 25.9688 15.8162C26.2982 16.2702 26.4008 16.8133 26.4787 17.3499C26.7894 19.4887 26.3597 21.4885 25.2951 23.3661C24.2786 25.159 22.8782 26.5859 21.0957 27.6253C17.8714 29.5054 14.4249 29.8675 10.8276 28.9846C8.5788 28.4327 6.59585 27.3565 4.84587 25.8573C3.01894 24.2921 1.63393 22.4043 0.677948 20.2075C0.454889 19.6949 0.244641 19.1769 0 18.6673C0.100937 18.9952 0.18378 19.3299 0.305602 19.65C1.51585 22.8297 3.49262 25.4248 6.34482 27.3323C8.86267 29.0161 11.6489 29.9064 14.6896 29.9007C17.9196 29.8946 20.8361 28.9203 23.3586 26.8935C25.867 24.878 27.3799 22.274 27.8441 19.1075C28.1986 16.6895 27.7485 14.385 26.5109 12.2758C25.4614 10.4874 23.9723 9.13775 22.0157 8.3441C21.5629 8.16045 21.0972 8.00838 20.6377 7.841C20.5131 7.79559 20.3712 7.77089 20.2706 7.69387C20.17 7.61689 20.0361 7.47184 20.0535 7.38271C20.0751 7.2717 20.222 7.13573 20.3409 7.10293C20.5525 7.04453 20.7845 7.03252 21.0065 7.04122C22.3831 7.09507 23.6126 7.58676 24.7518 8.32152C27.2211 9.91416 28.7291 12.1784 29.4057 14.9928C30.088 17.8308 29.7681 20.5898 28.5943 23.2504C27.6226 25.4529 26.1269 27.2655 24.2254 28.7386C22.9965 29.6906 21.6337 30.4196 20.1664 30.9683C18.7944 31.4814 17.3858 31.7904 15.931 31.9204C15.8241 31.93 15.7182 31.9506 15.6119 31.9922C15.8254 31.9922 16.0411 32.0117 16.2521 31.9891C17.8688 31.8163 19.458 31.5105 20.9609 30.8779C22.8027 30.1026 24.4696 29.0638 25.9039 27.657C26.9883 26.5933 27.9173 25.4256 28.6313 24.0926C30.1128 21.3267 30.6527 18.3931 30.1391 15.2961C29.5952 12.0168 28.0213 9.31961 25.3221 7.32668C23.2006 5.76023 20.8009 4.99281 18.1371 5.14493C16.451 5.24122 14.8788 5.74551 13.4785 6.665C11.6528 7.86392 10.4179 9.51481 9.91032 11.6591C9.85748 11.8824 9.79802 12.1113 9.69259 12.3123C9.63373 12.4246 9.47472 12.5487 9.35918 12.5503C9.24478 12.552 9.05328 12.4255 9.02626 12.3217C8.93205 11.9604 8.84612 11.5848 8.84462 11.2143C8.84054 10.2033 9.17789 9.26981 9.64035 8.38683C10.8274 6.12049 12.7024 4.64347 15.1021 3.78598C18.5483 2.55449 21.8583 2.99796 25.0454 4.63917C26.8312 5.55875 28.3054 6.85916 29.5265 8.45052C31.0742 10.4675 32.0236 12.7277 32.4027 15.2261C32.51 15.9332 32.5731 16.647 32.6627 17.4112C32.7445 16.4753 32.6349 15.6021 32.4901 14.7362C32.0753 12.2544 31.111 9.99558 29.5672 7.9988C28.2836 6.33867 26.7096 5.00931 24.8256 4.03835C22.7071 2.94653 20.4581 2.39496 18.0827 2.4918C15.3361 2.60375 12.8007 3.44064 10.7024 5.22966C7.55472 7.91338 6.14694 11.301 7.00169 15.4187C7.50712 17.8533 8.91037 19.7031 11.1402 20.881C11.6473 21.1489 12.2222 21.2912 12.7672 21.4879C12.962 21.5582 13.1771 21.5907 13.3511 21.6935C13.4677 21.7624 13.5969 21.9258 13.5948 22.0447C13.5928 22.1654 13.4564 22.3593 13.3437 22.3886C12.9791 22.4834 12.5951 22.5824 12.2246 22.5633C10.6336 22.4814 9.26153 21.859 8.04984 20.8421C6.23197 19.3164 5.21139 17.355 4.773 15.0666C4.2574 12.3751 4.75929 9.83027 6.01669 7.43597C7.12755 5.32072 8.74827 3.65165 10.7986 2.38128C13.3565 0.796446 16.1436 0.0878696 19.1391 0.150566C20.2693 0.174231 21.3883 0.337715 22.4887 0.606285L22.4849 0.607666Z"
      fill="url(#paint0_linear_870_112)"
    />
    <path
      d="M13.7644 1.22314L13.9198 8.3982C13.9467 9.63814 14.9455 10.6369 16.1854 10.6638L23.3604 10.8192L16.1854 10.9746C14.9455 11.0015 13.9467 12.0002 13.9198 13.2402L13.7644 20.4152L13.609 13.2402C13.5821 12.0002 12.5834 11.0015 11.3434 10.9746L4.16836 10.8192L11.3434 10.6638C12.5834 10.6369 13.5821 9.63814 13.609 8.3982L13.7644 1.22314Z"
      fill="#2B2B2B"
    />
  </g>
  <path
    d="M42 9.94032C42 7.30297 44.2251 6.02197 48.8464 6.02197H57.0193C61.5978 6.02197 63.8657 7.29544 63.8657 9.94032V13.1428H54.1096V9.13217C54.0821 8.95582 53.9387 8.792 53.7084 8.67381C53.4781 8.55563 53.1779 8.49187 52.8687 8.49543C52.5752 8.49834 52.2951 8.56635 52.0876 8.68514C51.88 8.80393 51.7612 8.9642 51.7561 9.13217V23.534C51.7526 23.7058 51.8673 23.8714 52.0755 23.9952C52.2837 24.1189 52.5686 24.1908 52.8687 24.1952C53.1844 24.1975 53.4895 24.13 53.7206 24.0069C53.9516 23.8837 54.091 23.7144 54.1096 23.534V18.7321H52.8259V16.4056H63.8657V26.5462H58.6881L57.9607 25.1013C56.8909 26.1299 54.9226 26.6687 52.0129 26.6687H48.8464C44.2382 26.6687 42 25.3707 42 22.7503V9.94032Z"
    fill="#2B2B2B"
  />
  <path
    fill-rule="evenodd"
    clip-rule="evenodd"
    d="M85.0898 6.14442L89.1976 26.5462H79.3559L78.5429 21.9177H74.7774L73.7899 26.5462H64.9785L69.6426 6.14442H85.0898ZM78.115 19.2728L76.9597 9.18114L75.1197 19.2728H78.115Z"
    fill="#2B2B2B"
  />
  <path
    d="M100.063 23.664V6.14442H90.3064V26.5538H104.904V23.664H100.063Z"
    fill="#2B2B2B"
  />
  <path
    fill-rule="evenodd"
    clip-rule="evenodd"
    d="M126.083 6.14442L130.19 26.5462H120.349L119.536 21.9177H115.767L114.779 26.5462H105.968L110.632 6.14442H126.083ZM119.104 19.2728L117.949 9.18114L116.096 19.2728H119.104Z"
    fill="#2B2B2B"
  />
  <path
    d="M145.976 26.6687C150.555 26.6687 152.823 25.3707 152.823 22.7503V18.5362H143.066V23.534C143.048 23.7144 142.909 23.8837 142.677 24.0069C142.446 24.13 142.141 24.1975 141.826 24.1952C141.526 24.1908 141.241 24.1189 141.032 23.9952C140.824 23.8714 140.709 23.7058 140.713 23.534V9.13217C140.718 8.9642 140.837 8.80393 141.045 8.68514C141.252 8.56635 141.532 8.49834 141.826 8.49543C142.135 8.49187 142.435 8.55563 142.665 8.67381C142.896 8.792 143.039 8.95582 143.066 9.13217V13.1428H152.839V9.94032C152.839 7.29544 150.571 6.02197 145.993 6.02197H137.82C133.198 6.02197 130.973 7.30297 130.973 9.94032V22.7503C130.973 25.3707 133.212 26.6687 137.82 26.6687H145.976Z"
    fill="#2B2B2B"
  />
  <path
    d="M170.452 6.14442V9.08884H167.029V26.5519H157.273V9.08884H153.85V6.15007L170.452 6.14442Z"
    fill="#2B2B2B"
  />
  <path d="M172.335 26.5462H182.091V6.14442H172.335V26.5462Z" fill="#2B2B2B" />
  <path
    d="M206.284 22.7503C206.284 25.3707 204.016 26.6687 199.438 26.6687H191.248C186.64 26.6687 184.402 25.3707 184.402 22.7503V9.94032C184.402 7.30297 186.627 6.02197 191.248 6.02197H199.421C204 6.02197 206.267 7.29544 206.267 9.94032V13.1428H196.511V9.13217C196.484 8.95582 196.341 8.792 196.11 8.67381C195.88 8.55563 195.58 8.49187 195.27 8.49543C194.977 8.49834 194.697 8.56635 194.489 8.68514C194.282 8.80393 194.163 8.9642 194.158 9.13217V23.534C194.154 23.7058 194.269 23.8714 194.477 23.9952C194.685 24.1189 194.97 24.1908 195.27 24.1952C195.586 24.1975 195.891 24.13 196.122 24.0069C196.353 23.8837 196.493 23.7144 196.511 23.534V18.5362H206.284V22.7503Z"
    fill="#2B2B2B"
  />
  <path
    fill-rule="evenodd"
    clip-rule="evenodd"
    d="M230.401 26.5462L226.293 6.14442H210.846L206.182 26.5462H214.994L215.981 21.9177H219.747L220.56 26.5462H230.401ZM218.163 9.18114L219.319 19.2728H216.323L218.163 9.18114Z"
    fill="#2B2B2B"
  />
  <defs>
    <linearGradient
      id="paint0_linear_870_112"
      x1="11.9835"
      y1="60.9876"
      x2="51.9035"
      y2="48.7484"
      gradientUnits="userSpaceOnUse"
    >
      <stop stop-color="#F26F56" />
      <stop offset="1" stop-color="#F49756" />
    </linearGradient>
    <clipPath id="clip0_870_112">
      <path
        d="M0 12.8C0 8.31958 0 6.07937 0.871948 4.36808C1.63893 2.86278 2.86278 1.63893 4.36808 0.871948C6.07937 0 8.31958 0 12.8 0H19.2C23.6804 0 25.9206 0 27.6319 0.871948C29.1372 1.63893 30.3611 2.86278 31.1281 4.36808C32 6.07937 32 8.31958 32 12.8V19.2C32 23.6804 32 25.9206 31.1281 27.6319C30.3611 29.1372 29.1372 30.3611 27.6319 31.1281C25.9206 32 23.6804 32 19.2 32H12.8C8.31958 32 6.07937 32 4.36808 31.1281C2.86278 30.3611 1.63893 29.1372 0.871948 27.6319C0 25.9206 0 23.6804 0 19.2V12.8Z"
        fill="white"
      />
    </clipPath>
  </defs>
</svg>
